<svg width="798" height="300" viewBox="0 0 798 300" fill="none" xmlns="http://www.w3.org/2000/svg">
<rect width="798" height="300" fill="white"/>
<g clip-path="url(#clip0_0_1)">
<path d="M674.59 298.764L636.582 298.164C637.502 288.336 645.848 280.666 655.865 280.825C665.881 280.983 673.981 288.912 674.59 298.764Z" fill="white" stroke="#715800" stroke-width="3"/>
<line x1="657" y1="281" x2="657" y2="286" stroke="#715800" stroke-width="2"/>
<path d="M250.11 291.833L254.722 247.538H300.368L303.917 291.833H250.11Z" fill="white" stroke="#715800" stroke-width="2"/>
<path d="M239 290.814H315C317.201 290.814 319 292.629 319 294.846C319 297.064 317.201 298.878 315 298.878H239C236.799 298.878 235 297.064 235 294.846C235 292.629 236.799 290.814 239 290.814Z" fill="white" stroke="#715800" stroke-width="2"/>
<rect x="104" y="6" width="347" height="241.551" rx="5" fill="white" stroke="#715800" stroke-width="2"/>
<rect x="121" y="22.1026" width="313" height="199.282" rx="7" fill="white" stroke="#715800" stroke-width="2"/>
<path d="M282 235.468C282 238.257 279.755 240.506 277 240.506C274.245 240.506 272 238.257 272 235.468C272 232.679 274.245 230.43 277 230.43C279.755 230.43 282 232.679 282 235.468Z" fill="white" stroke="#715800" stroke-width="2"/>
<g filter="url(#filter0_dd_0_1)">
<line x1="133.488" y1="86.0256" x2="215.512" y2="86.0256" stroke="#308F04" stroke-opacity="0.9" stroke-width="3" stroke-linecap="round" shape-rendering="crispEdges"/>
</g>
<g filter="url(#filter1_dd_0_1)">
<line x1="133.5" y1="106.154" x2="193.508" y2="106.154" stroke="#308F04" stroke-opacity="0.9" stroke-width="3" stroke-linecap="round" shape-rendering="crispEdges"/>
</g>
<g filter="url(#filter2_dd_0_1)">
<line x1="133.498" y1="65.3942" x2="264.502" y2="65.3942" stroke="#308F04" stroke-opacity="0.9" stroke-width="3" stroke-linecap="round" shape-rendering="crispEdges"/>
</g>
<g filter="url(#filter3_dd_0_1)">
<line x1="133.494" y1="46.7756" x2="295.506" y2="46.7756" stroke="#308F04" stroke-opacity="0.9" stroke-width="3" stroke-linecap="round" shape-rendering="crispEdges"/>
</g>
<g filter="url(#filter4_dd_0_1)">
<line x1="1.5" y1="-1.5" x2="84.5" y2="-1.5" transform="matrix(-1 0 0 1 410 206.282)" stroke="#308F04" stroke-opacity="0.9" stroke-width="3" stroke-linecap="round" shape-rendering="crispEdges"/>
</g>
<g filter="url(#filter5_dd_0_1)">
<line x1="1.5" y1="-1.5" x2="134.5" y2="-1.5" transform="matrix(-1 0 0 1 410 185.147)" stroke="#308F04" stroke-opacity="0.9" stroke-width="3" stroke-linecap="round" shape-rendering="crispEdges"/>
</g>
<g filter="url(#filter6_dd_0_1)">
<line x1="1.5" y1="-1.5" x2="165.5" y2="-1.5" transform="matrix(-1 0 0 1 410 167.032)" stroke="#308F04" stroke-opacity="0.9" stroke-width="3" stroke-linecap="round" shape-rendering="crispEdges"/>
</g>
<g filter="url(#filter7_d_0_1)">
<rect x="66" y="176.09" width="65" height="123.788" rx="8" fill="white"/>
<rect x="67" y="177.09" width="63" height="121.788" rx="7" stroke="#715800" stroke-width="2"/>
</g>
<line x1="66" y1="187.218" x2="131.005" y2="187.218" stroke="#715800" stroke-width="2"/>
<line x1="66" y1="281.262" x2="131.005" y2="281.262" stroke="#715800" stroke-width="2"/>
<line x1="85.7471" y1="182.734" x2="112.899" y2="182.734" stroke="#715800" stroke-width="2"/>
<g filter="url(#filter8_d_0_1)">
<ellipse cx="82.0191" cy="235.828" rx="4.5" ry="4.52885" fill="white"/>
<path d="M85.5191 235.828C85.5191 237.783 83.9461 239.357 82.0191 239.357C80.0922 239.357 78.5191 237.783 78.5191 235.828C78.5191 233.873 80.0922 232.3 82.0191 232.3C83.9461 232.3 85.5191 233.873 85.5191 235.828Z" stroke="#308F04" stroke-opacity="0.9" stroke-width="2"/>
</g>
<ellipse cx="98.2912" cy="290.192" rx="3.29118" ry="3.39753" fill="#715800"/>
<g filter="url(#filter9_dd_0_1)">
<line x1="93.5" y1="229.942" x2="117.5" y2="229.942" stroke="#308F04" stroke-opacity="0.9" stroke-width="3" stroke-linecap="round" shape-rendering="crispEdges"/>
</g>
<g filter="url(#filter10_dd_0_1)">
<line x1="93.5" y1="245.038" x2="104.5" y2="245.038" stroke="#308F04" stroke-opacity="0.9" stroke-width="3" stroke-linecap="round" shape-rendering="crispEdges"/>
</g>
<g filter="url(#filter11_dd_0_1)">
<line x1="93.5" y1="237.994" x2="112.5" y2="237.994" stroke="#308F04" stroke-opacity="0.9" stroke-width="3" stroke-linecap="round" shape-rendering="crispEdges"/>
</g>
<circle cx="42.5" cy="176.5" r="41.5" fill="white" stroke="#715800" stroke-width="2"/>
<g filter="url(#filter12_d_0_1)">
<path d="M56 165.019L76 175.015L56 188.167" stroke="#715800" stroke-width="3"/>
</g>
<g filter="url(#filter13_d_0_1)">
<path d="M30 165.019L9 175.015L30 188.167" stroke="#715800" stroke-width="3"/>
</g>
<g filter="url(#filter14_d_0_1)">
<line x1="1.5" y1="-1.5" x2="37.5891" y2="-1.5" transform="matrix(-0.249345 0.968415 -0.948049 -0.318126 46.9572 156.968)" stroke="#715800" stroke-width="3" stroke-linecap="round"/>
</g>
<g filter="url(#filter15_f_0_1)">
<rect x="719" y="212.321" width="69" height="8.05128" rx="4.02564" fill="#8F8F8F"/>
</g>
<path d="M693 227.404H737C739.761 227.404 742 229.642 742 232.404V282.814C742 285.576 739.761 287.814 737 287.814H693C690.239 287.814 688 285.576 688 282.814V232.404C688 229.642 690.239 227.404 693 227.404Z" fill="white" stroke="#715800" stroke-width="4"/>
<path d="M702 236.462H727C729.761 236.462 732 238.7 732 241.462V272.75C732 275.511 729.761 277.75 727 277.75H702C699.239 277.75 697 275.511 697 272.75V241.462C697 238.7 699.239 236.462 702 236.462Z" fill="white" stroke="#715800" stroke-width="4"/>
<g filter="url(#filter16_b_0_1)">
<rect x="714" y="215.34" width="78" height="84.5385" rx="7" fill="white"/>
<rect x="715.5" y="216.84" width="75" height="81.5385" rx="5.5" stroke="#715800" stroke-width="3"/>
</g>
<g filter="url(#filter17_d_0_1)">
<path d="M734.473 243.028H731.362C731.305 242.625 731.189 242.268 731.014 241.955C730.839 241.638 730.614 241.368 730.339 241.146C730.065 240.923 729.748 240.753 729.388 240.634C729.033 240.516 728.647 240.457 728.23 240.457C727.477 240.457 726.821 240.644 726.263 241.018C725.704 241.387 725.271 241.927 724.963 242.637C724.655 243.343 724.501 244.2 724.501 245.208C724.501 246.245 724.655 247.116 724.963 247.822C725.276 248.527 725.711 249.06 726.27 249.42C726.829 249.78 727.475 249.959 728.209 249.959C728.621 249.959 729.002 249.905 729.352 249.796C729.707 249.687 730.022 249.529 730.297 249.32C730.571 249.107 730.799 248.849 730.979 248.546C731.163 248.243 731.291 247.897 731.362 247.509L734.473 247.523C734.393 248.191 734.191 248.835 733.869 249.455C733.552 250.071 733.124 250.622 732.584 251.11C732.049 251.593 731.41 251.977 730.666 252.261C729.928 252.54 729.092 252.68 728.159 252.68C726.862 252.68 725.702 252.386 724.679 251.799C723.661 251.212 722.856 250.362 722.264 249.249C721.677 248.137 721.384 246.789 721.384 245.208C721.384 243.622 721.682 242.272 722.278 241.16C722.875 240.047 723.685 239.2 724.707 238.617C725.73 238.03 726.881 237.736 728.159 237.736C729.002 237.736 729.783 237.855 730.503 238.092C731.227 238.328 731.869 238.674 732.428 239.129C732.986 239.578 733.441 240.13 733.791 240.783C734.146 241.437 734.374 242.185 734.473 243.028ZM741.55 252.694C740.447 252.694 739.493 252.459 738.688 251.991C737.888 251.517 737.27 250.859 736.835 250.016C736.399 249.169 736.181 248.186 736.181 247.069C736.181 245.942 736.399 244.957 736.835 244.114C737.27 243.267 737.888 242.609 738.688 242.14C739.493 241.666 740.447 241.43 741.55 241.43C742.654 241.43 743.605 241.666 744.406 242.14C745.21 242.609 745.831 243.267 746.266 244.114C746.702 244.957 746.92 245.942 746.92 247.069C746.92 248.186 746.702 249.169 746.266 250.016C745.831 250.859 745.21 251.517 744.406 251.991C743.605 252.459 742.654 252.694 741.55 252.694ZM741.565 250.35C742.067 250.35 742.486 250.208 742.822 249.924C743.158 249.635 743.411 249.242 743.582 248.745C743.757 248.248 743.844 247.682 743.844 247.048C743.844 246.413 743.757 245.847 743.582 245.35C743.411 244.853 743.158 244.46 742.822 244.171C742.486 243.882 742.067 243.738 741.565 243.738C741.058 243.738 740.632 243.882 740.286 244.171C739.945 244.46 739.687 244.853 739.512 245.35C739.342 245.847 739.256 246.413 739.256 247.048C739.256 247.682 739.342 248.248 739.512 248.745C739.687 249.242 739.945 249.635 740.286 249.924C740.632 250.208 741.058 250.35 741.565 250.35ZM754.754 241.572V243.844H748.021V241.572H754.754ZM749.562 252.481V240.783C749.562 239.993 749.716 239.337 750.023 238.816C750.336 238.295 750.762 237.905 751.302 237.644C751.842 237.384 752.455 237.254 753.141 237.254C753.605 237.254 754.029 237.289 754.413 237.36C754.801 237.431 755.09 237.495 755.279 237.552L754.739 239.825C754.621 239.787 754.474 239.751 754.299 239.718C754.129 239.685 753.953 239.668 753.773 239.668C753.328 239.668 753.018 239.772 752.843 239.981C752.668 240.184 752.58 240.471 752.58 240.84V252.481H749.562ZM762.468 241.572V243.844H755.735V241.572H762.468ZM757.277 252.481V240.783C757.277 239.993 757.431 239.337 757.738 238.816C758.051 238.295 758.477 237.905 759.017 237.644C759.556 237.384 760.17 237.254 760.856 237.254C761.32 237.254 761.744 237.289 762.127 237.36C762.516 237.431 762.805 237.495 762.994 237.552L762.454 239.825C762.336 239.787 762.189 239.751 762.014 239.718C761.843 239.685 761.668 239.668 761.488 239.668C761.043 239.668 760.733 239.772 760.558 239.981C760.383 240.184 760.295 240.471 760.295 240.84V252.481H757.277ZM768.898 252.694C767.776 252.694 766.81 252.467 766 252.012C765.195 251.553 764.575 250.904 764.139 250.066C763.704 249.223 763.486 248.227 763.486 247.076C763.486 245.954 763.704 244.969 764.139 244.121C764.575 243.274 765.188 242.613 765.979 242.14C766.774 241.666 767.707 241.43 768.777 241.43C769.497 241.43 770.167 241.546 770.787 241.778C771.412 242.005 771.956 242.348 772.42 242.807C772.889 243.267 773.254 243.844 773.514 244.54C773.775 245.232 773.905 246.041 773.905 246.969V247.8H764.693V245.925H771.057C771.057 245.49 770.962 245.104 770.773 244.768C770.583 244.432 770.321 244.169 769.984 243.979C769.653 243.785 769.267 243.688 768.827 243.688C768.367 243.688 767.96 243.795 767.605 244.008C767.255 244.216 766.98 244.498 766.781 244.853C766.582 245.203 766.481 245.594 766.476 246.025V247.807C766.476 248.347 766.575 248.814 766.774 249.207C766.978 249.6 767.264 249.903 767.634 250.116C768.003 250.329 768.441 250.435 768.947 250.435C769.284 250.435 769.591 250.388 769.871 250.293C770.15 250.199 770.389 250.057 770.588 249.867C770.787 249.678 770.938 249.446 771.043 249.171L773.841 249.356C773.699 250.028 773.408 250.615 772.967 251.117C772.532 251.614 771.968 252.003 771.277 252.282C770.59 252.557 769.797 252.694 768.898 252.694ZM780.851 252.694C779.729 252.694 778.763 252.467 777.953 252.012C777.148 251.553 776.528 250.904 776.092 250.066C775.657 249.223 775.439 248.227 775.439 247.076C775.439 245.954 775.657 244.969 776.092 244.121C776.528 243.274 777.141 242.613 777.932 242.14C778.727 241.666 779.66 241.43 780.73 241.43C781.45 241.43 782.12 241.546 782.74 241.778C783.365 242.005 783.91 242.348 784.374 242.807C784.842 243.267 785.207 243.844 785.467 244.54C785.728 245.232 785.858 246.041 785.858 246.969V247.8H776.646V245.925H783.01C783.01 245.49 782.915 245.104 782.726 244.768C782.536 244.432 782.274 244.169 781.938 243.979C781.606 243.785 781.22 243.688 780.78 243.688C780.321 243.688 779.913 243.795 779.558 244.008C779.208 244.216 778.933 244.498 778.734 244.853C778.536 245.203 778.434 245.594 778.429 246.025V247.807C778.429 248.347 778.528 248.814 778.727 249.207C778.931 249.6 779.217 249.903 779.587 250.116C779.956 250.329 780.394 250.435 780.901 250.435C781.237 250.435 781.545 250.388 781.824 250.293C782.103 250.199 782.342 250.057 782.541 249.867C782.74 249.678 782.892 249.446 782.996 249.171L785.794 249.356C785.652 250.028 785.361 250.615 784.92 251.117C784.485 251.614 783.921 252.003 783.23 252.282C782.544 252.557 781.75 252.694 780.851 252.694ZM733.299 261.935V276.481H730.274V261.935H733.299ZM740.652 276.694C739.549 276.694 738.595 276.459 737.79 275.991C736.99 275.517 736.372 274.859 735.936 274.016C735.5 273.169 735.283 272.186 735.283 271.069C735.283 269.942 735.5 268.957 735.936 268.114C736.372 267.267 736.99 266.609 737.79 266.14C738.595 265.666 739.549 265.43 740.652 265.43C741.755 265.43 742.707 265.666 743.507 266.14C744.312 266.609 744.932 267.267 745.368 268.114C745.804 268.957 746.021 269.942 746.021 271.069C746.021 272.186 745.804 273.169 745.368 274.016C744.932 274.859 744.312 275.517 743.507 275.991C742.707 276.459 741.755 276.694 740.652 276.694ZM740.666 274.35C741.168 274.35 741.587 274.208 741.923 273.924C742.259 273.635 742.513 273.242 742.683 272.745C742.858 272.248 742.946 271.682 742.946 271.048C742.946 270.413 742.858 269.847 742.683 269.35C742.513 268.853 742.259 268.46 741.923 268.171C741.587 267.882 741.168 267.738 740.666 267.738C740.16 267.738 739.733 267.882 739.388 268.171C739.047 268.46 738.789 268.853 738.614 269.35C738.443 269.847 738.358 270.413 738.358 271.048C738.358 271.682 738.443 272.248 738.614 272.745C738.789 273.242 739.047 273.635 739.388 273.924C739.733 274.208 740.16 274.35 740.666 274.35ZM757.808 265.572L753.994 276.481H750.585L746.771 265.572H749.967L752.232 273.377H752.346L754.604 265.572H757.808ZM763.976 276.694C762.854 276.694 761.888 276.467 761.078 276.012C760.273 275.553 759.653 274.904 759.217 274.066C758.782 273.223 758.564 272.227 758.564 271.076C758.564 269.954 758.782 268.969 759.217 268.121C759.653 267.274 760.266 266.613 761.057 266.14C761.852 265.666 762.785 265.43 763.855 265.43C764.575 265.43 765.245 265.546 765.865 265.778C766.49 266.005 767.035 266.348 767.499 266.807C767.967 267.267 768.332 267.844 768.592 268.54C768.853 269.232 768.983 270.041 768.983 270.969V271.8H759.771V269.925H766.135C766.135 269.49 766.04 269.104 765.851 268.768C765.661 268.432 765.399 268.169 765.062 267.979C764.731 267.785 764.345 267.688 763.905 267.688C763.446 267.688 763.038 267.795 762.683 268.008C762.333 268.216 762.058 268.498 761.859 268.853C761.661 269.203 761.559 269.594 761.554 270.025V271.807C761.554 272.347 761.653 272.814 761.852 273.207C762.056 273.6 762.342 273.903 762.712 274.116C763.081 274.329 763.519 274.435 764.026 274.435C764.362 274.435 764.67 274.388 764.949 274.293C765.228 274.199 765.467 274.057 765.666 273.867C765.865 273.678 766.017 273.446 766.121 273.171L768.919 273.356C768.777 274.028 768.486 274.615 768.045 275.117C767.61 275.614 767.046 276.003 766.355 276.282C765.669 276.557 764.875 276.694 763.976 276.694ZM770.957 276.481V265.572H773.891V267.475H774.004C774.203 266.798 774.537 266.287 775.006 265.941C775.474 265.591 776.014 265.415 776.625 265.415C776.777 265.415 776.94 265.425 777.115 265.444C777.29 265.463 777.444 265.489 777.577 265.522V268.207C777.435 268.164 777.238 268.126 776.987 268.093C776.736 268.06 776.507 268.043 776.298 268.043C775.853 268.043 775.455 268.14 775.105 268.334C774.759 268.524 774.485 268.789 774.281 269.13C774.082 269.471 773.983 269.864 773.983 270.309V276.481H770.957Z" fill="#715800"/>
</g>
<g filter="url(#filter18_f_0_1)">
<path d="M729.283 166.739C717.915 178.573 754.381 184.701 729.8 199.498" stroke="#715800" stroke-width="4"/>
</g>
<g filter="url(#filter19_f_0_1)">
<path d="M755.5 185.147C755.5 185.147 747.625 194.636 755.5 196.218C763.375 197.799 755.5 207.288 755.5 207.288" stroke="#715800" stroke-width="4"/>
</g>
<g filter="url(#filter20_f_0_1)">
<path d="M767.5 160.994C767.5 160.994 759.625 176.09 767.5 178.606C775.375 181.122 767.5 196.218 767.5 196.218" stroke="#715800" stroke-width="4"/>
</g>
<rect x="373.627" y="123.75" width="240.058" height="160.988" rx="7" fill="white" stroke="#715800" stroke-width="2"/>
<rect x="384" y="139.853" width="220" height="129.84" rx="2" fill="white" stroke="#715800" stroke-width="2"/>
<path d="M365 285.993H623C623.552 285.993 624 286.441 624 286.993V289.878C624 294.849 619.971 298.878 615 298.878H373C368.029 298.878 364 294.849 364 289.878V286.993C364 286.441 364.448 285.993 365 285.993Z" fill="white" stroke="#715800" stroke-width="2"/>
<path d="M482.966 286.738H504.346V286.783C504.346 289.544 502.108 291.783 499.346 291.783H487.966C485.204 291.783 482.966 289.544 482.966 286.783V286.738Z" fill="white" stroke="#715800" stroke-width="2"/>
<rect x="541.006" y="70.4102" width="172.964" height="144.936" rx="19" fill="white" stroke="#715800" stroke-width="2"/>
<path d="M563.57 191.088L578.879 186.387L563.382 180.831" stroke="#715800" stroke-width="3" stroke-linecap="round"/>
<path d="M563.57 128.333L578.879 123.631L563.382 118.075" stroke="#715800" stroke-width="3" stroke-linecap="round"/>
<path d="M563.57 159.71L578.879 155.009L563.382 149.453" stroke="#715800" stroke-width="3" stroke-linecap="round"/>
<g filter="url(#filter21_dd_0_1)">
<path d="M592.425 123.14C603.504 128.501 617.472 115.914 628.551 123.14" stroke="#308F04" stroke-opacity="0.9" stroke-width="3" shape-rendering="crispEdges"/>
</g>
<g filter="url(#filter22_dd_0_1)">
<path d="M646.26 123.229C653.344 128.379 674.849 115.853 685.928 123.229" stroke="#308F04" stroke-opacity="0.9" stroke-width="3" shape-rendering="crispEdges"/>
</g>
<g filter="url(#filter23_dd_0_1)">
<path d="M592.425 155.191C603.504 161.624 617.472 146.52 628.551 155.191" stroke="#308F04" stroke-opacity="0.9" stroke-width="3" shape-rendering="crispEdges"/>
</g>
<g filter="url(#filter24_dd_0_1)">
<path d="M646.26 155.298C653.344 161.479 674.849 146.447 685.928 155.299" stroke="#308F04" stroke-opacity="0.9" stroke-width="3" shape-rendering="crispEdges"/>
</g>
<g filter="url(#filter25_dd_0_1)">
<path d="M592.425 188.252C603.504 194.685 617.472 179.581 628.551 188.252" stroke="#308F04" stroke-opacity="0.9" stroke-width="3" shape-rendering="crispEdges"/>
</g>
<g filter="url(#filter26_dd_0_1)">
<path d="M646.26 188.359C653.344 194.54 674.849 179.507 685.928 188.359" stroke="#308F04" stroke-opacity="0.9" stroke-width="3" shape-rendering="crispEdges"/>
</g>
<g filter="url(#filter27_dd_0_1)">
<line x1="540" y1="92.522" x2="715" y2="92.522" stroke="#715800" stroke-width="3"/>
</g>
<ellipse cx="592.425" cy="81.1651" rx="3.54179" ry="3.6734" fill="#715800"/>
<ellipse cx="579.674" cy="81.1651" rx="3.54179" ry="3.6734" fill="#715800"/>
<ellipse cx="566.924" cy="81.1651" rx="3.54179" ry="3.6734" fill="#715800"/>
</g>
<defs>
<filter id="filter0_dd_0_1" x="127.988" y="84.5256" width="93.0235" height="11" filterUnits="userSpaceOnUse" color-interpolation-filters="sRGB">
<feFlood flood-opacity="0" result="BackgroundImageFix"/>
<feColorMatrix in="SourceAlpha" type="matrix" values="0 0 0 0 0 0 0 0 0 0 0 0 0 0 0 0 0 0 127 0" result="hardAlpha"/>
<feOffset dy="4"/>
<feGaussianBlur stdDeviation="2"/>
<feComposite in2="hardAlpha" operator="out"/>
<feColorMatrix type="matrix" values="0 0 0 0 0 0 0 0 0 0 0 0 0 0 0 0 0 0 0.25 0"/>
<feBlend mode="normal" in2="BackgroundImageFix" result="effect1_dropShadow_0_1"/>
<feColorMatrix in="SourceAlpha" type="matrix" values="0 0 0 0 0 0 0 0 0 0 0 0 0 0 0 0 0 0 127 0" result="hardAlpha"/>
<feOffset dy="4"/>
<feGaussianBlur stdDeviation="2"/>
<feComposite in2="hardAlpha" operator="out"/>
<feColorMatrix type="matrix" values="0 0 0 0 0 0 0 0 0 0 0 0 0 0 0 0 0 0 0.25 0"/>
<feBlend mode="normal" in2="effect1_dropShadow_0_1" result="effect2_dropShadow_0_1"/>
<feBlend mode="normal" in="SourceGraphic" in2="effect2_dropShadow_0_1" result="shape"/>
</filter>
<filter id="filter1_dd_0_1" x="128" y="104.654" width="71.0079" height="11" filterUnits="userSpaceOnUse" color-interpolation-filters="sRGB">
<feFlood flood-opacity="0" result="BackgroundImageFix"/>
<feColorMatrix in="SourceAlpha" type="matrix" values="0 0 0 0 0 0 0 0 0 0 0 0 0 0 0 0 0 0 127 0" result="hardAlpha"/>
<feOffset dy="4"/>
<feGaussianBlur stdDeviation="2"/>
<feComposite in2="hardAlpha" operator="out"/>
<feColorMatrix type="matrix" values="0 0 0 0 0 0 0 0 0 0 0 0 0 0 0 0 0 0 0.25 0"/>
<feBlend mode="normal" in2="BackgroundImageFix" result="effect1_dropShadow_0_1"/>
<feColorMatrix in="SourceAlpha" type="matrix" values="0 0 0 0 0 0 0 0 0 0 0 0 0 0 0 0 0 0 127 0" result="hardAlpha"/>
<feOffset dy="4"/>
<feGaussianBlur stdDeviation="2"/>
<feComposite in2="hardAlpha" operator="out"/>
<feColorMatrix type="matrix" values="0 0 0 0 0 0 0 0 0 0 0 0 0 0 0 0 0 0 0.25 0"/>
<feBlend mode="normal" in2="effect1_dropShadow_0_1" result="effect2_dropShadow_0_1"/>
<feBlend mode="normal" in="SourceGraphic" in2="effect2_dropShadow_0_1" result="shape"/>
</filter>
<filter id="filter2_dd_0_1" x="127.998" y="63.8942" width="142.004" height="11" filterUnits="userSpaceOnUse" color-interpolation-filters="sRGB">
<feFlood flood-opacity="0" result="BackgroundImageFix"/>
<feColorMatrix in="SourceAlpha" type="matrix" values="0 0 0 0 0 0 0 0 0 0 0 0 0 0 0 0 0 0 127 0" result="hardAlpha"/>
<feOffset dy="4"/>
<feGaussianBlur stdDeviation="2"/>
<feComposite in2="hardAlpha" operator="out"/>
<feColorMatrix type="matrix" values="0 0 0 0 0 0 0 0 0 0 0 0 0 0 0 0 0 0 0.25 0"/>
<feBlend mode="normal" in2="BackgroundImageFix" result="effect1_dropShadow_0_1"/>
<feColorMatrix in="SourceAlpha" type="matrix" values="0 0 0 0 0 0 0 0 0 0 0 0 0 0 0 0 0 0 127 0" result="hardAlpha"/>
<feOffset dy="4"/>
<feGaussianBlur stdDeviation="2"/>
<feComposite in2="hardAlpha" operator="out"/>
<feColorMatrix type="matrix" values="0 0 0 0 0 0 0 0 0 0 0 0 0 0 0 0 0 0 0.25 0"/>
<feBlend mode="normal" in2="effect1_dropShadow_0_1" result="effect2_dropShadow_0_1"/>
<feBlend mode="normal" in="SourceGraphic" in2="effect2_dropShadow_0_1" result="shape"/>
</filter>
<filter id="filter3_dd_0_1" x="127.994" y="45.2756" width="173.012" height="11" filterUnits="userSpaceOnUse" color-interpolation-filters="sRGB">
<feFlood flood-opacity="0" result="BackgroundImageFix"/>
<feColorMatrix in="SourceAlpha" type="matrix" values="0 0 0 0 0 0 0 0 0 0 0 0 0 0 0 0 0 0 127 0" result="hardAlpha"/>
<feOffset dy="4"/>
<feGaussianBlur stdDeviation="2"/>
<feComposite in2="hardAlpha" operator="out"/>
<feColorMatrix type="matrix" values="0 0 0 0 0 0 0 0 0 0 0 0 0 0 0 0 0 0 0.25 0"/>
<feBlend mode="normal" in2="BackgroundImageFix" result="effect1_dropShadow_0_1"/>
<feColorMatrix in="SourceAlpha" type="matrix" values="0 0 0 0 0 0 0 0 0 0 0 0 0 0 0 0 0 0 127 0" result="hardAlpha"/>
<feOffset dy="4"/>
<feGaussianBlur stdDeviation="2"/>
<feComposite in2="hardAlpha" operator="out"/>
<feColorMatrix type="matrix" values="0 0 0 0 0 0 0 0 0 0 0 0 0 0 0 0 0 0 0.25 0"/>
<feBlend mode="normal" in2="effect1_dropShadow_0_1" result="effect2_dropShadow_0_1"/>
<feBlend mode="normal" in="SourceGraphic" in2="effect2_dropShadow_0_1" result="shape"/>
</filter>
<filter id="filter4_dd_0_1" x="320" y="203.282" width="94" height="11" filterUnits="userSpaceOnUse" color-interpolation-filters="sRGB">
<feFlood flood-opacity="0" result="BackgroundImageFix"/>
<feColorMatrix in="SourceAlpha" type="matrix" values="0 0 0 0 0 0 0 0 0 0 0 0 0 0 0 0 0 0 127 0" result="hardAlpha"/>
<feOffset dy="4"/>
<feGaussianBlur stdDeviation="2"/>
<feComposite in2="hardAlpha" operator="out"/>
<feColorMatrix type="matrix" values="0 0 0 0 0 0 0 0 0 0 0 0 0 0 0 0 0 0 0.25 0"/>
<feBlend mode="normal" in2="BackgroundImageFix" result="effect1_dropShadow_0_1"/>
<feColorMatrix in="SourceAlpha" type="matrix" values="0 0 0 0 0 0 0 0 0 0 0 0 0 0 0 0 0 0 127 0" result="hardAlpha"/>
<feOffset dy="4"/>
<feGaussianBlur stdDeviation="2"/>
<feComposite in2="hardAlpha" operator="out"/>
<feColorMatrix type="matrix" values="0 0 0 0 0 0 0 0 0 0 0 0 0 0 0 0 0 0 0.25 0"/>
<feBlend mode="normal" in2="effect1_dropShadow_0_1" result="effect2_dropShadow_0_1"/>
<feBlend mode="normal" in="SourceGraphic" in2="effect2_dropShadow_0_1" result="shape"/>
</filter>
<filter id="filter5_dd_0_1" x="270" y="182.147" width="144" height="11" filterUnits="userSpaceOnUse" color-interpolation-filters="sRGB">
<feFlood flood-opacity="0" result="BackgroundImageFix"/>
<feColorMatrix in="SourceAlpha" type="matrix" values="0 0 0 0 0 0 0 0 0 0 0 0 0 0 0 0 0 0 127 0" result="hardAlpha"/>
<feOffset dy="4"/>
<feGaussianBlur stdDeviation="2"/>
<feComposite in2="hardAlpha" operator="out"/>
<feColorMatrix type="matrix" values="0 0 0 0 0 0 0 0 0 0 0 0 0 0 0 0 0 0 0.25 0"/>
<feBlend mode="normal" in2="BackgroundImageFix" result="effect1_dropShadow_0_1"/>
<feColorMatrix in="SourceAlpha" type="matrix" values="0 0 0 0 0 0 0 0 0 0 0 0 0 0 0 0 0 0 127 0" result="hardAlpha"/>
<feOffset dy="4"/>
<feGaussianBlur stdDeviation="2"/>
<feComposite in2="hardAlpha" operator="out"/>
<feColorMatrix type="matrix" values="0 0 0 0 0 0 0 0 0 0 0 0 0 0 0 0 0 0 0.25 0"/>
<feBlend mode="normal" in2="effect1_dropShadow_0_1" result="effect2_dropShadow_0_1"/>
<feBlend mode="normal" in="SourceGraphic" in2="effect2_dropShadow_0_1" result="shape"/>
</filter>
<filter id="filter6_dd_0_1" x="239" y="164.032" width="175" height="11" filterUnits="userSpaceOnUse" color-interpolation-filters="sRGB">
<feFlood flood-opacity="0" result="BackgroundImageFix"/>
<feColorMatrix in="SourceAlpha" type="matrix" values="0 0 0 0 0 0 0 0 0 0 0 0 0 0 0 0 0 0 127 0" result="hardAlpha"/>
<feOffset dy="4"/>
<feGaussianBlur stdDeviation="2"/>
<feComposite in2="hardAlpha" operator="out"/>
<feColorMatrix type="matrix" values="0 0 0 0 0 0 0 0 0 0 0 0 0 0 0 0 0 0 0.25 0"/>
<feBlend mode="normal" in2="BackgroundImageFix" result="effect1_dropShadow_0_1"/>
<feColorMatrix in="SourceAlpha" type="matrix" values="0 0 0 0 0 0 0 0 0 0 0 0 0 0 0 0 0 0 127 0" result="hardAlpha"/>
<feOffset dy="4"/>
<feGaussianBlur stdDeviation="2"/>
<feComposite in2="hardAlpha" operator="out"/>
<feColorMatrix type="matrix" values="0 0 0 0 0 0 0 0 0 0 0 0 0 0 0 0 0 0 0.25 0"/>
<feBlend mode="normal" in2="effect1_dropShadow_0_1" result="effect2_dropShadow_0_1"/>
<feBlend mode="normal" in="SourceGraphic" in2="effect2_dropShadow_0_1" result="shape"/>
</filter>
<filter id="filter7_d_0_1" x="62" y="176.09" width="73" height="131.788" filterUnits="userSpaceOnUse" color-interpolation-filters="sRGB">
<feFlood flood-opacity="0" result="BackgroundImageFix"/>
<feColorMatrix in="SourceAlpha" type="matrix" values="0 0 0 0 0 0 0 0 0 0 0 0 0 0 0 0 0 0 127 0" result="hardAlpha"/>
<feOffset dy="4"/>
<feGaussianBlur stdDeviation="2"/>
<feComposite in2="hardAlpha" operator="out"/>
<feColorMatrix type="matrix" values="0 0 0 0 0 0 0 0 0 0 0 0 0 0 0 0 0 0 0.25 0"/>
<feBlend mode="normal" in2="BackgroundImageFix" result="effect1_dropShadow_0_1"/>
<feBlend mode="normal" in="SourceGraphic" in2="effect1_dropShadow_0_1" result="shape"/>
</filter>
<filter id="filter8_d_0_1" x="73.5191" y="231.3" width="17" height="17.0577" filterUnits="userSpaceOnUse" color-interpolation-filters="sRGB">
<feFlood flood-opacity="0" result="BackgroundImageFix"/>
<feColorMatrix in="SourceAlpha" type="matrix" values="0 0 0 0 0 0 0 0 0 0 0 0 0 0 0 0 0 0 127 0" result="hardAlpha"/>
<feOffset dy="4"/>
<feGaussianBlur stdDeviation="2"/>
<feComposite in2="hardAlpha" operator="out"/>
<feColorMatrix type="matrix" values="0 0 0 0 0 0 0 0 0 0 0 0 0 0 0 0 0 0 0.25 0"/>
<feBlend mode="normal" in2="BackgroundImageFix" result="effect1_dropShadow_0_1"/>
<feBlend mode="normal" in="SourceGraphic" in2="effect1_dropShadow_0_1" result="shape"/>
</filter>
<filter id="filter9_dd_0_1" x="88" y="228.442" width="35" height="11" filterUnits="userSpaceOnUse" color-interpolation-filters="sRGB">
<feFlood flood-opacity="0" result="BackgroundImageFix"/>
<feColorMatrix in="SourceAlpha" type="matrix" values="0 0 0 0 0 0 0 0 0 0 0 0 0 0 0 0 0 0 127 0" result="hardAlpha"/>
<feOffset dy="4"/>
<feGaussianBlur stdDeviation="2"/>
<feComposite in2="hardAlpha" operator="out"/>
<feColorMatrix type="matrix" values="0 0 0 0 0 0 0 0 0 0 0 0 0 0 0 0 0 0 0.25 0"/>
<feBlend mode="normal" in2="BackgroundImageFix" result="effect1_dropShadow_0_1"/>
<feColorMatrix in="SourceAlpha" type="matrix" values="0 0 0 0 0 0 0 0 0 0 0 0 0 0 0 0 0 0 127 0" result="hardAlpha"/>
<feOffset dy="4"/>
<feGaussianBlur stdDeviation="2"/>
<feComposite in2="hardAlpha" operator="out"/>
<feColorMatrix type="matrix" values="0 0 0 0 0 0 0 0 0 0 0 0 0 0 0 0 0 0 0.25 0"/>
<feBlend mode="normal" in2="effect1_dropShadow_0_1" result="effect2_dropShadow_0_1"/>
<feBlend mode="normal" in="SourceGraphic" in2="effect2_dropShadow_0_1" result="shape"/>
</filter>
<filter id="filter10_dd_0_1" x="88" y="243.538" width="22" height="11" filterUnits="userSpaceOnUse" color-interpolation-filters="sRGB">
<feFlood flood-opacity="0" result="BackgroundImageFix"/>
<feColorMatrix in="SourceAlpha" type="matrix" values="0 0 0 0 0 0 0 0 0 0 0 0 0 0 0 0 0 0 127 0" result="hardAlpha"/>
<feOffset dy="4"/>
<feGaussianBlur stdDeviation="2"/>
<feComposite in2="hardAlpha" operator="out"/>
<feColorMatrix type="matrix" values="0 0 0 0 0 0 0 0 0 0 0 0 0 0 0 0 0 0 0.25 0"/>
<feBlend mode="normal" in2="BackgroundImageFix" result="effect1_dropShadow_0_1"/>
<feColorMatrix in="SourceAlpha" type="matrix" values="0 0 0 0 0 0 0 0 0 0 0 0 0 0 0 0 0 0 127 0" result="hardAlpha"/>
<feOffset dy="4"/>
<feGaussianBlur stdDeviation="2"/>
<feComposite in2="hardAlpha" operator="out"/>
<feColorMatrix type="matrix" values="0 0 0 0 0 0 0 0 0 0 0 0 0 0 0 0 0 0 0.25 0"/>
<feBlend mode="normal" in2="effect1_dropShadow_0_1" result="effect2_dropShadow_0_1"/>
<feBlend mode="normal" in="SourceGraphic" in2="effect2_dropShadow_0_1" result="shape"/>
</filter>
<filter id="filter11_dd_0_1" x="88" y="236.494" width="30" height="11" filterUnits="userSpaceOnUse" color-interpolation-filters="sRGB">
<feFlood flood-opacity="0" result="BackgroundImageFix"/>
<feColorMatrix in="SourceAlpha" type="matrix" values="0 0 0 0 0 0 0 0 0 0 0 0 0 0 0 0 0 0 127 0" result="hardAlpha"/>
<feOffset dy="4"/>
<feGaussianBlur stdDeviation="2"/>
<feComposite in2="hardAlpha" operator="out"/>
<feColorMatrix type="matrix" values="0 0 0 0 0 0 0 0 0 0 0 0 0 0 0 0 0 0 0.25 0"/>
<feBlend mode="normal" in2="BackgroundImageFix" result="effect1_dropShadow_0_1"/>
<feColorMatrix in="SourceAlpha" type="matrix" values="0 0 0 0 0 0 0 0 0 0 0 0 0 0 0 0 0 0 127 0" result="hardAlpha"/>
<feOffset dy="4"/>
<feGaussianBlur stdDeviation="2"/>
<feComposite in2="hardAlpha" operator="out"/>
<feColorMatrix type="matrix" values="0 0 0 0 0 0 0 0 0 0 0 0 0 0 0 0 0 0 0.25 0"/>
<feBlend mode="normal" in2="effect1_dropShadow_0_1" result="effect2_dropShadow_0_1"/>
<feBlend mode="normal" in="SourceGraphic" in2="effect2_dropShadow_0_1" result="shape"/>
</filter>
<filter id="filter12_d_0_1" x="51.1758" y="163.677" width="31.8242" height="33.7425" filterUnits="userSpaceOnUse" color-interpolation-filters="sRGB">
<feFlood flood-opacity="0" result="BackgroundImageFix"/>
<feColorMatrix in="SourceAlpha" type="matrix" values="0 0 0 0 0 0 0 0 0 0 0 0 0 0 0 0 0 0 127 0" result="hardAlpha"/>
<feOffset dy="4"/>
<feGaussianBlur stdDeviation="2"/>
<feComposite in2="hardAlpha" operator="out"/>
<feColorMatrix type="matrix" values="0 0 0 0 0 0 0 0 0 0 0 0 0 0 0 0 0 0 0.25 0"/>
<feBlend mode="normal" in2="BackgroundImageFix" result="effect1_dropShadow_0_1"/>
<feBlend mode="normal" in="SourceGraphic" in2="effect1_dropShadow_0_1" result="shape"/>
</filter>
<filter id="filter13_d_0_1" x="1.88717" y="163.665" width="32.909" height="33.7731" filterUnits="userSpaceOnUse" color-interpolation-filters="sRGB">
<feFlood flood-opacity="0" result="BackgroundImageFix"/>
<feColorMatrix in="SourceAlpha" type="matrix" values="0 0 0 0 0 0 0 0 0 0 0 0 0 0 0 0 0 0 127 0" result="hardAlpha"/>
<feOffset dy="4"/>
<feGaussianBlur stdDeviation="2"/>
<feComposite in2="hardAlpha" operator="out"/>
<feColorMatrix type="matrix" values="0 0 0 0 0 0 0 0 0 0 0 0 0 0 0 0 0 0 0.25 0"/>
<feBlend mode="normal" in2="BackgroundImageFix" result="effect1_dropShadow_0_1"/>
<feBlend mode="normal" in="SourceGraphic" in2="effect1_dropShadow_0_1" result="shape"/>
</filter>
<filter id="filter14_d_0_1" x="33.5358" y="157.368" width="19.9403" height="46.0081" filterUnits="userSpaceOnUse" color-interpolation-filters="sRGB">
<feFlood flood-opacity="0" result="BackgroundImageFix"/>
<feColorMatrix in="SourceAlpha" type="matrix" values="0 0 0 0 0 0 0 0 0 0 0 0 0 0 0 0 0 0 127 0" result="hardAlpha"/>
<feOffset dy="4"/>
<feGaussianBlur stdDeviation="2"/>
<feComposite in2="hardAlpha" operator="out"/>
<feColorMatrix type="matrix" values="0 0 0 0 0 0 0 0 0 0 0 0 0 0 0 0 0 0 0.25 0"/>
<feBlend mode="normal" in2="BackgroundImageFix" result="effect1_dropShadow_0_1"/>
<feBlend mode="normal" in="SourceGraphic" in2="effect1_dropShadow_0_1" result="shape"/>
</filter>
<filter id="filter15_f_0_1" x="715" y="208.321" width="77" height="16.0513" filterUnits="userSpaceOnUse" color-interpolation-filters="sRGB">
<feFlood flood-opacity="0" result="BackgroundImageFix"/>
<feBlend mode="normal" in="SourceGraphic" in2="BackgroundImageFix" result="shape"/>
<feGaussianBlur stdDeviation="2" result="effect1_foregroundBlur_0_1"/>
</filter>
<filter id="filter16_b_0_1" x="710" y="211.34" width="86" height="92.5385" filterUnits="userSpaceOnUse" color-interpolation-filters="sRGB">
<feFlood flood-opacity="0" result="BackgroundImageFix"/>
<feGaussianBlur in="BackgroundImage" stdDeviation="2"/>
<feComposite in2="SourceAlpha" operator="in" result="effect1_backgroundBlur_0_1"/>
<feBlend mode="normal" in="SourceGraphic" in2="effect1_backgroundBlur_0_1" result="shape"/>
</filter>
<filter id="filter17_d_0_1" x="717.384" y="237.254" width="72.4744" height="47.4403" filterUnits="userSpaceOnUse" color-interpolation-filters="sRGB">
<feFlood flood-opacity="0" result="BackgroundImageFix"/>
<feColorMatrix in="SourceAlpha" type="matrix" values="0 0 0 0 0 0 0 0 0 0 0 0 0 0 0 0 0 0 127 0" result="hardAlpha"/>
<feOffset dy="4"/>
<feGaussianBlur stdDeviation="2"/>
<feComposite in2="hardAlpha" operator="out"/>
<feColorMatrix type="matrix" values="0 0 0 0 0 0 0 0 0 0 0 0 0 0 0 0 0 0 0.25 0"/>
<feBlend mode="normal" in2="BackgroundImageFix" result="effect1_dropShadow_0_1"/>
<feBlend mode="normal" in="SourceGraphic" in2="effect1_dropShadow_0_1" result="shape"/>
</filter>
<filter id="filter18_f_0_1" x="723.022" y="163.353" width="19.4857" height="39.858" filterUnits="userSpaceOnUse" color-interpolation-filters="sRGB">
<feFlood flood-opacity="0" result="BackgroundImageFix"/>
<feBlend mode="normal" in="SourceGraphic" in2="BackgroundImageFix" result="shape"/>
<feGaussianBlur stdDeviation="1" result="effect1_foregroundBlur_0_1"/>
</filter>
<filter id="filter19_f_0_1" x="748" y="181.871" width="15.0002" height="28.6936" filterUnits="userSpaceOnUse" color-interpolation-filters="sRGB">
<feFlood flood-opacity="0" result="BackgroundImageFix"/>
<feBlend mode="normal" in="SourceGraphic" in2="BackgroundImageFix" result="shape"/>
<feGaussianBlur stdDeviation="1" result="effect1_foregroundBlur_0_1"/>
</filter>
<filter id="filter20_f_0_1" x="760" y="158.07" width="14.9996" height="41.0724" filterUnits="userSpaceOnUse" color-interpolation-filters="sRGB">
<feFlood flood-opacity="0" result="BackgroundImageFix"/>
<feBlend mode="normal" in="SourceGraphic" in2="BackgroundImageFix" result="shape"/>
<feGaussianBlur stdDeviation="1" result="effect1_foregroundBlur_0_1"/>
</filter>
<filter id="filter21_dd_0_1" x="587.772" y="119.338" width="45.5991" height="14.673" filterUnits="userSpaceOnUse" color-interpolation-filters="sRGB">
<feFlood flood-opacity="0" result="BackgroundImageFix"/>
<feColorMatrix in="SourceAlpha" type="matrix" values="0 0 0 0 0 0 0 0 0 0 0 0 0 0 0 0 0 0 127 0" result="hardAlpha"/>
<feOffset dy="4"/>
<feGaussianBlur stdDeviation="2"/>
<feComposite in2="hardAlpha" operator="out"/>
<feColorMatrix type="matrix" values="0 0 0 0 0 0 0 0 0 0 0 0 0 0 0 0 0 0 0.25 0"/>
<feBlend mode="normal" in2="BackgroundImageFix" result="effect1_dropShadow_0_1"/>
<feColorMatrix in="SourceAlpha" type="matrix" values="0 0 0 0 0 0 0 0 0 0 0 0 0 0 0 0 0 0 127 0" result="hardAlpha"/>
<feOffset dy="4"/>
<feGaussianBlur stdDeviation="2"/>
<feComposite in2="hardAlpha" operator="out"/>
<feColorMatrix type="matrix" values="0 0 0 0 0 0 0 0 0 0 0 0 0 0 0 0 0 0 0.25 0"/>
<feBlend mode="normal" in2="effect1_dropShadow_0_1" result="effect2_dropShadow_0_1"/>
<feBlend mode="normal" in="SourceGraphic" in2="effect2_dropShadow_0_1" result="shape"/>
</filter>
<filter id="filter22_dd_0_1" x="641.378" y="119.338" width="49.3815" height="14.674" filterUnits="userSpaceOnUse" color-interpolation-filters="sRGB">
<feFlood flood-opacity="0" result="BackgroundImageFix"/>
<feColorMatrix in="SourceAlpha" type="matrix" values="0 0 0 0 0 0 0 0 0 0 0 0 0 0 0 0 0 0 127 0" result="hardAlpha"/>
<feOffset dy="4"/>
<feGaussianBlur stdDeviation="2"/>
<feComposite in2="hardAlpha" operator="out"/>
<feColorMatrix type="matrix" values="0 0 0 0 0 0 0 0 0 0 0 0 0 0 0 0 0 0 0.25 0"/>
<feBlend mode="normal" in2="BackgroundImageFix" result="effect1_dropShadow_0_1"/>
<feColorMatrix in="SourceAlpha" type="matrix" values="0 0 0 0 0 0 0 0 0 0 0 0 0 0 0 0 0 0 127 0" result="hardAlpha"/>
<feOffset dy="4"/>
<feGaussianBlur stdDeviation="2"/>
<feComposite in2="hardAlpha" operator="out"/>
<feColorMatrix type="matrix" values="0 0 0 0 0 0 0 0 0 0 0 0 0 0 0 0 0 0 0.25 0"/>
<feBlend mode="normal" in2="effect1_dropShadow_0_1" result="effect2_dropShadow_0_1"/>
<feBlend mode="normal" in="SourceGraphic" in2="effect2_dropShadow_0_1" result="shape"/>
</filter>
<filter id="filter23_dd_0_1" x="587.672" y="150.929" width="45.804" height="15.4077" filterUnits="userSpaceOnUse" color-interpolation-filters="sRGB">
<feFlood flood-opacity="0" result="BackgroundImageFix"/>
<feColorMatrix in="SourceAlpha" type="matrix" values="0 0 0 0 0 0 0 0 0 0 0 0 0 0 0 0 0 0 127 0" result="hardAlpha"/>
<feOffset dy="4"/>
<feGaussianBlur stdDeviation="2"/>
<feComposite in2="hardAlpha" operator="out"/>
<feColorMatrix type="matrix" values="0 0 0 0 0 0 0 0 0 0 0 0 0 0 0 0 0 0 0.25 0"/>
<feBlend mode="normal" in2="BackgroundImageFix" result="effect1_dropShadow_0_1"/>
<feColorMatrix in="SourceAlpha" type="matrix" values="0 0 0 0 0 0 0 0 0 0 0 0 0 0 0 0 0 0 127 0" result="hardAlpha"/>
<feOffset dy="4"/>
<feGaussianBlur stdDeviation="2"/>
<feComposite in2="hardAlpha" operator="out"/>
<feColorMatrix type="matrix" values="0 0 0 0 0 0 0 0 0 0 0 0 0 0 0 0 0 0 0.25 0"/>
<feBlend mode="normal" in2="effect1_dropShadow_0_1" result="effect2_dropShadow_0_1"/>
<feBlend mode="normal" in="SourceGraphic" in2="effect2_dropShadow_0_1" result="shape"/>
</filter>
<filter id="filter24_dd_0_1" x="641.274" y="150.929" width="49.5905" height="15.4082" filterUnits="userSpaceOnUse" color-interpolation-filters="sRGB">
<feFlood flood-opacity="0" result="BackgroundImageFix"/>
<feColorMatrix in="SourceAlpha" type="matrix" values="0 0 0 0 0 0 0 0 0 0 0 0 0 0 0 0 0 0 127 0" result="hardAlpha"/>
<feOffset dy="4"/>
<feGaussianBlur stdDeviation="2"/>
<feComposite in2="hardAlpha" operator="out"/>
<feColorMatrix type="matrix" values="0 0 0 0 0 0 0 0 0 0 0 0 0 0 0 0 0 0 0.25 0"/>
<feBlend mode="normal" in2="BackgroundImageFix" result="effect1_dropShadow_0_1"/>
<feColorMatrix in="SourceAlpha" type="matrix" values="0 0 0 0 0 0 0 0 0 0 0 0 0 0 0 0 0 0 127 0" result="hardAlpha"/>
<feOffset dy="4"/>
<feGaussianBlur stdDeviation="2"/>
<feComposite in2="hardAlpha" operator="out"/>
<feColorMatrix type="matrix" values="0 0 0 0 0 0 0 0 0 0 0 0 0 0 0 0 0 0 0.25 0"/>
<feBlend mode="normal" in2="effect1_dropShadow_0_1" result="effect2_dropShadow_0_1"/>
<feBlend mode="normal" in="SourceGraphic" in2="effect2_dropShadow_0_1" result="shape"/>
</filter>
<filter id="filter25_dd_0_1" x="587.672" y="183.99" width="45.804" height="15.4077" filterUnits="userSpaceOnUse" color-interpolation-filters="sRGB">
<feFlood flood-opacity="0" result="BackgroundImageFix"/>
<feColorMatrix in="SourceAlpha" type="matrix" values="0 0 0 0 0 0 0 0 0 0 0 0 0 0 0 0 0 0 127 0" result="hardAlpha"/>
<feOffset dy="4"/>
<feGaussianBlur stdDeviation="2"/>
<feComposite in2="hardAlpha" operator="out"/>
<feColorMatrix type="matrix" values="0 0 0 0 0 0 0 0 0 0 0 0 0 0 0 0 0 0 0.25 0"/>
<feBlend mode="normal" in2="BackgroundImageFix" result="effect1_dropShadow_0_1"/>
<feColorMatrix in="SourceAlpha" type="matrix" values="0 0 0 0 0 0 0 0 0 0 0 0 0 0 0 0 0 0 127 0" result="hardAlpha"/>
<feOffset dy="4"/>
<feGaussianBlur stdDeviation="2"/>
<feComposite in2="hardAlpha" operator="out"/>
<feColorMatrix type="matrix" values="0 0 0 0 0 0 0 0 0 0 0 0 0 0 0 0 0 0 0.25 0"/>
<feBlend mode="normal" in2="effect1_dropShadow_0_1" result="effect2_dropShadow_0_1"/>
<feBlend mode="normal" in="SourceGraphic" in2="effect2_dropShadow_0_1" result="shape"/>
</filter>
<filter id="filter26_dd_0_1" x="641.274" y="183.99" width="49.5905" height="15.4082" filterUnits="userSpaceOnUse" color-interpolation-filters="sRGB">
<feFlood flood-opacity="0" result="BackgroundImageFix"/>
<feColorMatrix in="SourceAlpha" type="matrix" values="0 0 0 0 0 0 0 0 0 0 0 0 0 0 0 0 0 0 127 0" result="hardAlpha"/>
<feOffset dy="4"/>
<feGaussianBlur stdDeviation="2"/>
<feComposite in2="hardAlpha" operator="out"/>
<feColorMatrix type="matrix" values="0 0 0 0 0 0 0 0 0 0 0 0 0 0 0 0 0 0 0.25 0"/>
<feBlend mode="normal" in2="BackgroundImageFix" result="effect1_dropShadow_0_1"/>
<feColorMatrix in="SourceAlpha" type="matrix" values="0 0 0 0 0 0 0 0 0 0 0 0 0 0 0 0 0 0 127 0" result="hardAlpha"/>
<feOffset dy="4"/>
<feGaussianBlur stdDeviation="2"/>
<feComposite in2="hardAlpha" operator="out"/>
<feColorMatrix type="matrix" values="0 0 0 0 0 0 0 0 0 0 0 0 0 0 0 0 0 0 0.25 0"/>
<feBlend mode="normal" in2="effect1_dropShadow_0_1" result="effect2_dropShadow_0_1"/>
<feBlend mode="normal" in="SourceGraphic" in2="effect2_dropShadow_0_1" result="shape"/>
</filter>
<filter id="filter27_dd_0_1" x="536" y="91.022" width="183" height="11" filterUnits="userSpaceOnUse" color-interpolation-filters="sRGB">
<feFlood flood-opacity="0" result="BackgroundImageFix"/>
<feColorMatrix in="SourceAlpha" type="matrix" values="0 0 0 0 0 0 0 0 0 0 0 0 0 0 0 0 0 0 127 0" result="hardAlpha"/>
<feOffset dy="4"/>
<feGaussianBlur stdDeviation="2"/>
<feComposite in2="hardAlpha" operator="out"/>
<feColorMatrix type="matrix" values="0 0 0 0 0 0 0 0 0 0 0 0 0 0 0 0 0 0 0.25 0"/>
<feBlend mode="normal" in2="BackgroundImageFix" result="effect1_dropShadow_0_1"/>
<feColorMatrix in="SourceAlpha" type="matrix" values="0 0 0 0 0 0 0 0 0 0 0 0 0 0 0 0 0 0 127 0" result="hardAlpha"/>
<feOffset dy="4"/>
<feGaussianBlur stdDeviation="2"/>
<feComposite in2="hardAlpha" operator="out"/>
<feColorMatrix type="matrix" values="0 0 0 0 0 0 0 0 0 0 0 0 0 0 0 0 0 0 0.25 0"/>
<feBlend mode="normal" in2="effect1_dropShadow_0_1" result="effect2_dropShadow_0_1"/>
<feBlend mode="normal" in="SourceGraphic" in2="effect2_dropShadow_0_1" result="shape"/>
</filter>
<clipPath id="clip0_0_1">
<rect width="798" height="300" fill="white"/>
</clipPath>
</defs>
</svg>
